<svg xmlns="http://www.w3.org/2000/svg" version="1.1" xmlns:xlink="http://www.w3.org/1999/xlink" viewBox="0 0 200 200"><rect width="200" height="200" fill="url('#gradient')"></rect><defs><linearGradient id="gradient" gradientTransform="rotate(0 0.5 0.5)"><stop offset="0%" stop-color="#34ccab"></stop><stop offset="100%" stop-color="#88d1e8"></stop></linearGradient></defs><g><g fill="#085141" transform="matrix(6.392009987515605,0,0,6.392009987515605,18.147691348518777,144.80970742550682)" stroke="#000000" stroke-width="0.2"><path d="M12.96-14.22L12.96 0L9.55 0L9.55-5.94L4.50-5.94L4.50 0L1.07 0L1.07-14.22L4.50-14.22L4.50-8.57L9.55-8.57L9.55-14.22L12.96-14.22ZM20.09 0.20L20.09 0.20Q17.66 0.20 16.15-1.25Q14.65-2.71 14.65-5.03L14.65-5.03L14.65-5.30Q14.65-6.92 15.25-8.16Q15.85-9.40 17.00-10.08Q18.15-10.76 19.74-10.76L19.74-10.76Q21.96-10.76 23.25-9.38Q24.54-8.00 24.54-5.53L24.54-5.53L24.54-4.25L18.00-4.25Q18.17-3.36 18.77-2.85Q19.37-2.34 20.31-2.34L20.31-2.34Q21.88-2.34 22.75-3.44L22.75-3.44L24.26-1.66Q23.64-0.81 22.51-0.31Q21.39 0.20 20.09 0.20ZM19.72-8.22L19.72-8.22Q18.27-8.22 18.00-6.31L18.00-6.31L21.32-6.31L21.32-6.56Q21.34-7.35 20.92-7.79Q20.50-8.22 19.72-8.22Z"></path></g></g></svg>